<?xml version="1.0" encoding="UTF-8" standalone="no"?>
<!-- Created with Inkscape (http://www.inkscape.org/) -->

<svg
   version="1.1"
   id="svg1"
   width="96"
   height="109.71429"
   viewBox="0 0 96 109.71429"
   sodipodi:docname="stadium.svg"
   inkscape:version="1.4.2 (f4327f4, 2025-05-13)"
   xml:space="preserve"
   xmlns:inkscape="http://www.inkscape.org/namespaces/inkscape"
   xmlns:sodipodi="http://sodipodi.sourceforge.net/DTD/sodipodi-0.dtd"
   xmlns="http://www.w3.org/2000/svg"
   xmlns:svg="http://www.w3.org/2000/svg"><defs
     id="defs1"><inkscape:path-effect
       effect="fillet_chamfer"
       id="path-effect46"
       is_visible="true"
       lpeversion="1"
       nodesatellites_param="F,0,0,1,0,0,0,1 @ F,0,0,1,0,0,0,1 @ F,0,0,1,0,0,0,1 @ F,0,0,1,0,0,0,1"
       radius="0"
       unit="px"
       method="auto"
       mode="F"
       chamfer_steps="1"
       flexible="false"
       use_knot_distance="true"
       apply_no_radius="true"
       apply_with_radius="true"
       only_selected="false"
       hide_knots="false" /><inkscape:path-effect
       effect="bspline"
       id="path-effect6"
       is_visible="true"
       lpeversion="1.3"
       weight="33.333333"
       steps="2"
       helper_size="0"
       apply_no_weight="true"
       apply_with_weight="true"
       only_selected="false"
       uniform="false" /><linearGradient
       id="swatch3"
       inkscape:swatch="solid"><stop
         style="stop-color:#d6d9e6;stop-opacity:1;"
         offset="0"
         id="stop3" /></linearGradient><filter
       inkscape:collect="always"
       style="color-interpolation-filters:sRGB;"
       id="filter4"
       x="-0.038799922"
       y="-0.033549404"
       width="1.0788568"
       height="1.0942531"
       inkscape:label="Drop Shadow"><feGaussianBlur
         inkscape:collect="always"
         stdDeviation="0.13613154"
         id="feGaussianBlur4"
         result="fbSourceGraphic" /><feColorMatrix
         result="fbSourceGraphicAlpha"
         in="fbSourceGraphic"
         values="0 0 0 -1 0 0 0 0 -1 0 0 0 0 -1 0 0 0 0 1 0"
         id="feColorMatrix32" /><feFlood
         id="feFlood32"
         result="flood"
         in="fbSourceGraphic"
         flood-opacity="0.756863"
         flood-color="rgb(0,0,0)" /><feGaussianBlur
         id="feGaussianBlur32"
         result="blur"
         in="fbSourceGraphic"
         stdDeviation="0.900000" /><feOffset
         id="feOffset32"
         result="offset"
         in="blur"
         dx="0.100000"
         dy="2.500000" /><feComposite
         id="feComposite32"
         result="comp1"
         operator="in"
         in="flood"
         in2="offset" /><feComposite
         id="feComposite33"
         result="comp2"
         operator="over"
         in="fbSourceGraphic"
         in2="comp1" /></filter></defs><sodipodi:namedview
     id="namedview1"
     pagecolor="#ffffff"
     bordercolor="#000000"
     borderopacity="0.25"
     inkscape:showpageshadow="2"
     inkscape:pageopacity="0.0"
     inkscape:pagecheckerboard="0"
     inkscape:deskcolor="#d1d1d1"
     inkscape:zoom="8"
     inkscape:cx="33.5625"
     inkscape:cy="34.6875"
     inkscape:window-width="1920"
     inkscape:window-height="1057"
     inkscape:window-x="-8"
     inkscape:window-y="-8"
     inkscape:window-maximized="1"
     inkscape:current-layer="svg1"
     showgrid="true"><inkscape:grid
       id="grid44"
       units="px"
       originx="0"
       originy="0"
       spacingx="1"
       spacingy="1"
       empcolor="#0099e5"
       empopacity="0.30196078"
       color="#0099e5"
       opacity="0.14901961"
       empspacing="5"
       enabled="true"
       visible="true" /></sodipodi:namedview><g
     inkscape:groupmode="layer"
     inkscape:label="pin"
     id="g1"
     style="display:inline"><path
       id="path2"
       style="opacity:1;fill:#ffffff;fill-opacity:1;stroke:#dcdcdc;stroke-width:1.2;stroke-linecap:square;stroke-dasharray:none;stroke-opacity:1;paint-order:markers fill stroke;filter:url(#filter4)"
       d="M 48,7.9570312 A 39.778309,39.778309 0 0 0 8.2226562,47.734375 39.778309,39.778309 0 0 0 16.189453,71.617188 c 0,0 18.484044,25.41052 24.744141,27.318359 4.491228,1.368753 8.983381,1.368753 13.474609,0 5.253077,-1.600938 20.82454,-21.400488 24.683594,-26.388672 0.559437,-0.723124 0.873047,-1.134766 0.873047,-1.134766 A 39.778309,39.778309 0 0 0 87.777344,47.734375 39.778309,39.778309 0 0 0 48,7.9570312 Z"
       inkscape:label="guitar pick" /><path
       style="display:inline;opacity:1;fill:#17a773;fill-opacity:1;stroke:none;stroke-width:1.2083;stroke-linecap:square;stroke-dasharray:none;stroke-opacity:1;paint-order:markers fill stroke"
       id="path4"
       inkscape:label="circle"
       inkscape:path-effect="#path-effect46"
       sodipodi:type="arc"
       sodipodi:cx="48"
       sodipodi:cy="47.671177"
       sodipodi:rx="35.144718"
       sodipodi:ry="35.144718"
       d="m 83.144718,47.671177 c 0,19.409892 -15.734826,35.144718 -35.144718,35.144718 -19.409892,0 -35.144718,-15.734826 -35.144718,-35.144718 0,-19.409892 15.734826,-35.144718 35.144718,-35.144718 19.409892,0 35.144718,15.734826 35.144718,35.144718 z" /></g><path
     d="m 36.211547,42.131434 v 0.01031 C 51.02271,45.75391 58.348038,63.155711 71.625713,51.70764 v 11.448071 c -4.667235,6.903708 -35.414166,5.572928 -35.414166,5.572928 v -6.975941 l -8.856398,-2.279651 1.151243,8.391471 -5.342826,-4.410556 V 46.41711 c 3.556464,-6.506175 13.047981,-4.286022 13.047981,-4.286022 z m 15.67321,4.763399 19.02731,3.333342 c -1.515849,1.60925 -3.671313,2.336384 -5.496764,2.336384 -5.56733,0 -9.225152,-2.359214 -13.530546,-5.669726 z m 2.356794,-5.693247 18.578644,3.244439 0.01624,0.564897 c 0,0.876922 -0.114839,1.67013 -0.32171,2.38343 L 51.288737,43.944777 c 1.031207,-0.963404 1.988038,-1.895674 2.952823,-2.743191 z m 9.253517,-3.833551 c 4.760634,0 7.589963,1.391659 8.740166,4.182243 L 57.315447,38.943727 c 1.709568,-0.973089 3.658168,-1.575692 6.179621,-1.575692 z m -32.875069,-6.09556 9.31959,1.68362 v 7.456433 l -9.31959,-1.685005 z m 32.618047,-3.474134 9.319592,1.738969 v 6.957954 l -9.319592,-1.782557 z m 0,0"
     fill-rule="evenodd"
     id="path1"
     style="fill:#ffffff;fill-opacity:1;stroke:none;stroke-width:0;stroke-dasharray:none;stroke-opacity:1" /></svg>
